<?xml version="1.0" encoding="UTF-8"?>
<svg width="701px" height="138px" viewBox="0 0 701 138" version="1.1" xmlns="http://www.w3.org/2000/svg" xmlns:xlink="http://www.w3.org/1999/xlink">
    <!-- Generator: Sketch 54.1 (76490) - https://sketchapp.com -->
    <title>Group 2</title>
    <desc>Created with Sketch.</desc>
    <g id="Page-1" stroke="none" stroke-width="1" fill="none" fill-rule="evenodd">
        <g id="Desktop" transform="translate(-155.000000, -154.000000)" fill-rule="nonzero">
            <g id="Group-2" transform="translate(155.000000, 154.000000)">
                <g id="Group">
                    <rect id="Rectangle" fill="#0086FF" x="0" y="0" width="138" height="138"></rect>
                    <path d="M18,38.5621481 L18,56.3986574 L20.5129534,59 L38,59 L38,38.5799047 L28.0604491,38.5799047 C28.2101324,31.9152591 31.5233161,28.4527212 38,28.192291 L38,18 C24.6666667,19.5625812 18,26.4166306 18,38.5621481 Z" id="Path" fill="#FFFFFF"></path>
                    <path d="M45,38.5621481 L45,56.3986574 L47.5862069,59 L65,59 L65,38.5799047 L55.0775862,38.5799047 C55.2557471,31.9152591 58.5632184,28.4527212 65,28.192291 L65,18 C51.6666667,19.5625812 45,26.4166306 45,38.5621481 Z" id="Path" fill="#FFFFFF"></path>
                    <polygon id="Path" fill="#FFFFFF" points="99 93.856366 99 97.143634 76.7294221 119 70 114.011813 82.0537069 95.5044065 70 76.9881868 76.7294221 72"></polygon>
                    <polygon id="Path" fill="#FFFFFF" points="124 93.856366 124 97.143634 101.729422 119 95 114.011813 107.053707 95.5044065 95 76.9881868 101.729422 72"></polygon>
                </g>
                <path d="M196.26,44.54 C196.79,43.84 197.54,42.97 198.5,41.94 C199.46,40.91 201.59,39.51 204.87,37.75 C208.03048,36.0182702 211.576179,35.110351 215.18,35.11 C222.74,35.11 228.903333,37.7266667 233.67,42.96 C238.436667,48.1933333 240.82,55.2466667 240.82,64.12 L240.82,102.61 L222.63,102.61 L222.63,66.16 C222.778643,62.5424211 221.471164,59.01619 219,56.37 C216.576887,53.8783758 213.213411,52.5271737 209.74,52.65 C206.016988,52.4803851 202.408879,53.9624178 199.88,56.7 C197.44,59.3666667 196.22,63.2 196.22,68.2 L196.22,102.61 L178.07,102.61 L178.07,36.43 L196.26,36.43 L196.26,44.54 Z" id="Path" fill="#212121"></path>
                <path d="M290.09,95.89 C289.56,96.5 288.82,97.26 287.88,98.16 C285.995625,99.6229635 283.919643,100.820775 281.71,101.72 C278.619629,103.175342 275.245906,103.92999 271.83,103.93 C265.243333,103.93 259.88,102.096667 255.74,98.43 C251.782312,95.1309464 249.510924,90.232235 249.55,85.08 C249.39883,80.0581312 251.272622,75.1862733 254.75,71.56 C258.23,67.96 263.02,65.6266667 269.12,64.56 L290.12,60.8 C290.202848,58.2014247 289.098824,55.7063312 287.12,54.02 C285.12,52.26 282.31,51.38 278.69,51.38 C275.854973,51.3143259 273.039679,51.8671473 270.44,53 C268.483087,53.7756832 266.71135,54.9545697 265.24,56.46 L263.72,58.04 L253.63,48 L254.72,46.58 C255.68062,45.485762 256.716472,44.4599341 257.82,43.51 C259.432631,42.0535697 261.188202,40.7636941 263.06,39.66 C265.41602,38.3439438 267.91584,37.3037502 270.51,36.56 C273.565032,35.6194968 276.743476,35.1408765 279.94,35.14 C288.28,35.14 295.09,37.6333333 300.37,42.62 C305.583983,47.4684206 308.464739,54.3225098 308.28,61.44 L308.28,102.64 L290.09,102.64 L290.09,95.89 Z M286.43,85.18 C288.87,82.56 290.09,78.9233333 290.09,74.27 L290.09,72.27 L275.25,74.97 C270.29,75.7566667 267.81,78.24 267.81,82.42 C267.81,86.9 270.73,89.14 276.57,89.14 C280.273829,89.3029815 283.8678,87.8595612 286.43,85.18 Z" id="Shape" fill="#212121"></path>
                <path d="M403.42,66.16 C403.42,61.94 402.42,58.6333333 400.42,56.24 C398.520559,53.9056533 395.64869,52.5804595 392.64,52.65 C389.254813,52.585083 386.034758,54.1099825 383.94,56.77 C381.65,59.51 380.51,63.33 380.51,68.2 L380.51,102.61 L362.29,102.61 L362.29,66.16 C362.29,61.94 361.266667,58.6333333 359.22,56.24 C357.329258,53.9168656 354.474761,52.5928808 351.48,52.65 C348.084518,52.589591 344.8542,54.1123494 342.74,56.77 C340.44,59.51 339.28,63.33 339.28,68.2 L339.28,102.61 L321.09,102.61 L321.09,36.43 L339.28,36.43 L339.28,44.54 C339.890298,43.6181634 340.57598,42.7485175 341.33,41.94 C343.098115,40.2829234 345.082884,38.873401 347.23,37.75 C350.148979,36.0140888 353.483862,35.1017477 356.88,35.11 C359.371872,35.0943337 361.847905,35.5070058 364.2,36.33 C366.165263,36.9738096 368.012719,37.9330009 369.67,39.17 C370.942887,40.1586598 372.124309,41.2597588 373.2,42.46 C374.017513,43.3284167 374.69252,44.3206769 375.2,45.4 L375.73,46.58 C375.9,46.32 376.2,45.91 376.61,45.36 C377.448278,44.3751894 378.35378,43.44964 379.32,42.59 C380.699306,41.2998052 382.188254,40.1320684 383.77,39.1 C385.713872,37.9030204 387.809117,36.9714269 390,36.33 C392.588445,35.5160064 395.286588,35.1045395 398,35.11 C405.293333,35.11 411.06,37.56 415.3,42.46 C419.54,47.36 421.66,54.58 421.66,64.12 L421.66,102.61 L403.42,102.61 L403.42,66.16 Z" id="Path" fill="#212121"></path>
                <path d="M449.32,75.59 C450.05047,79.2336628 452.092973,82.4824528 455.06,84.72 C458.441021,87.2871514 462.607906,88.601894 466.85,88.44 C470.134319,88.4743874 473.386602,87.7918516 476.38,86.44 C478.685266,85.5188868 480.780556,84.1413015 482.54,82.39 L484.45,80.39 L493.88,92.52 L492.66,93.74 C491.543914,94.7472618 490.364865,95.6824847 489.13,96.54 C487.315706,97.8448687 485.399546,99.0019215 483.4,100 C480.884608,101.204053 478.241154,102.119868 475.52,102.73 C472.247564,103.532411 468.889356,103.932038 465.52,103.92 C456.201781,104.084203 447.222383,100.427401 440.67,93.8 C434.005831,87.4962475 430.282,78.6924868 430.4,69.52 C430.504158,50.531901 445.891729,35.17557 464.88,35.11 C474.326667,35.11 482.193333,38.2633333 488.48,44.57 C494.766667,50.8766667 497.906667,58.7533333 497.9,68.2 L497.24,75.59 L449.32,75.59 Z M455,54 C452.266915,56.288591 450.281667,59.3430873 449.3,62.77 L479.69,62.77 C479.06534,59.3842583 477.300939,56.3142021 474.69,54.07 C471.961769,51.7576976 468.474797,50.5360107 464.9,50.64 C461.303034,50.5311366 457.787639,51.7242404 455,54 L455,54 Z" id="Shape" fill="#212121"></path>
                <path d="M504.46,86.73 C508.750207,82.6752471 515.459793,82.6752471 519.75,86.73 C521.76773,88.532352 522.921274,91.109504 522.921274,93.815 C522.921274,96.520496 521.76773,99.097648 519.75,100.9 C515.453848,104.939781 508.756152,104.939781 504.46,100.9 C502.448069,99.0943143 501.298709,96.5183992 501.298709,93.815 C501.298709,91.1116008 502.448069,88.5356857 504.46,86.73 L504.46,86.73 Z" id="Path" fill="#212121"></path>
                <path d="M569.17,95.89 C568.64,96.5 567.9,97.26 566.96,98.16 C565.07809,99.6212389 563.005653,100.818946 560.8,101.72 C557.706147,103.175525 554.329135,103.930146 550.91,103.93 C544.323333,103.93 538.96,102.096667 534.82,98.43 C530.862312,95.1309464 528.590924,90.232235 528.63,85.08 C528.478097,80.0561186 530.356059,75.1827907 533.84,71.56 C537.306667,67.96 542.096667,65.6266667 548.21,64.56 L569.21,60.8 C569.28991,58.2019977 568.186424,55.7081198 566.21,54.02 C564.21,52.26 561.396667,51.38 557.77,51.38 C554.935083,51.3156076 552.120062,51.8683753 549.52,53 C547.563087,53.7756832 545.79135,54.9545697 544.32,56.46 L542.8,58.04 L532.71,48 L533.8,46.58 C534.76062,45.485762 535.796472,44.4599341 536.9,43.51 C538.512631,42.0535697 540.268202,40.7636941 542.14,39.66 C544.49602,38.3439438 546.99584,37.3037502 549.59,36.56 C552.637217,35.6118813 555.808718,35.1231803 559,35.11 C567.353333,35.11 574.163333,37.6033333 579.43,42.59 C584.643983,47.4384206 587.524739,54.2925098 587.34,61.41 L587.34,102.61 L569.17,102.61 L569.17,95.89 Z M565.51,85.18 C567.95,82.56 569.17,78.9233333 569.17,74.27 L569.17,72.27 L554.34,74.97 C549.366667,75.7566667 546.883333,78.24 546.89,82.42 C546.89,86.9 549.81,89.14 555.65,89.14 C559.353829,89.3029815 562.9478,87.8595612 565.51,85.18 L565.51,85.18 Z" id="Shape" fill="#212121"></path>
                <path d="M682.5,66.16 C682.5,61.94 681.5,58.6333333 679.5,56.24 C677.601512,53.9044247 674.729006,52.5789366 671.72,52.65 C668.335484,52.5882042 665.116748,54.1124794 663.02,56.77 C660.73,59.51 659.59,63.33 659.59,68.2 L659.59,102.61 L641.37,102.61 L641.37,66.16 C641.37,61.94 640.346667,58.6333333 638.3,56.24 C636.409258,53.9168656 633.554761,52.5928808 630.56,52.65 C627.164518,52.589591 623.9342,54.1123494 621.82,56.77 C619.52,59.51 618.36,63.33 618.36,68.2 L618.36,102.61 L600.17,102.61 L600.17,36.43 L618.36,36.43 L618.36,44.54 C618.95435,43.6200324 619.623266,42.7504417 620.36,41.94 C622.128115,40.2829234 624.112884,38.873401 626.26,37.75 C629.205598,35.999262 632.573475,35.0864082 636,35.11 C638.491872,35.0943337 640.967905,35.5070058 643.32,36.33 C645.286165,36.9716591 647.133958,37.9310251 648.79,39.17 C650.062887,40.1586598 651.244309,41.2597588 652.32,42.46 C653.137513,43.3284167 653.81252,44.3206769 654.32,45.4 L654.85,46.58 C655.02,46.32 655.32,45.91 655.74,45.36 C656.571187,44.3720056 657.473599,43.4461971 658.44,42.59 C659.819306,41.2998052 661.308254,40.1320684 662.89,39.1 C664.833872,37.9030204 666.929117,36.9714269 669.12,36.33 C671.708445,35.5160064 674.406588,35.1045395 677.12,35.11 C684.406667,35.11 690.173333,37.56 694.42,42.46 C698.666667,47.36 700.786667,54.58 700.78,64.12 L700.780016,102.61 L682.5,102.61 L682.5,66.16 Z" id="Path" fill="#212121"></path>
            </g>
        </g>
    </g>
</svg>